<svg width="116" height="225" viewBox="0 0 116 225" xmlns="http://www.w3.org/2000/svg"><title>Page 1</title><path d="M111.813 116.443H90.626c.3-2.268.504-4.496.504-6.618.003-5.505-1.316-10.806-3.765-15.57l7.287-5.642c1.445-1.12 1.707-3.192.584-4.63-1.13-1.443-3.215-1.704-4.653-.58L86.91 86.25l1.58-5.387c.515-1.746-.492-3.58-2.25-4.093-1.755-.505-3.595.492-4.112 2.245l-1.756 5.983c-4.92-4.633-10.964-7.667-17.52-8.822 6.218-7.855 18.275-25.153 18.275-41.13.004-6.473-2.522-12.56-7.12-17.14-3.177-3.166-7.088-5.318-11.343-6.367l3.145-5.982c.85-1.614.224-3.61-1.4-4.456-1.62-.85-3.622-.22-4.47 1.393L56.808 8.45l-2.204-6.014c-.63-1.713-2.53-2.598-4.25-1.97-1.72.623-2.604 2.52-1.977 4.23l2.515 6.866C40.326 14.2 32.468 23.708 32.468 35.035c.004 16 12.07 33.3 18.285 41.15-6.493 1.16-12.346 4.137-17.032 8.388l-1.55-5.278c-.514-1.752-2.353-2.752-4.11-2.244-1.76.512-2.763 2.347-2.25 4.093l1.58 5.387-3.674-2.845c-1.442-1.126-3.527-.862-4.65.577-1.124 1.44-.862 3.512.583 4.63l6.7 5.193c-2.465 4.716-3.88 10.06-3.88 15.733 0 2.13.192 4.354.493 6.625H3.9c-1.83 0-3.314 1.475-3.314 3.3v22.285c0 1.822 1.485 3.3 3.314 3.3h5.85l10.97 76.094c.235 1.628 1.63 2.836 3.28 2.836h67.713c1.65 0 3.046-1.208 3.28-2.832l10.974-76.097h5.846c1.83 0 3.315-1.48 3.315-3.302v-22.285c0-1.825-1.485-3.3-3.315-3.3zM56.8 17.41c4.73 0 9.178 1.832 12.522 5.162 3.34 3.33 5.18 7.76 5.177 12.473 0 14.55-12.323 31.418-17.7 38.09-5.38-6.662-17.7-23.512-17.703-38.1 0-9.72 7.94-17.625 17.704-17.625zm.004 64.813c7.4 0 14.36 2.874 19.59 8.09 5.234 5.21 8.11 12.14 8.107 19.51 0 2.1-.234 4.332-.576 6.62h-54.25c-.34-2.288-.576-4.52-.576-6.625 0-15.218 12.428-27.595 27.706-27.595zm32.04 135.434H26.87L16.45 145.33h82.82l-10.425 72.327zm-81.63-94.613H108.5v15.684H7.213v-15.684z" fill="#222" fill-rule="evenodd"/></svg>